:FULLY-SPECIFIED
:FORCE-ALL-JOINTS-BE-3DOF
:DEGREES
1733
root -5.07308 15.6486 27.2312 928.768 -13.727 168.113
lfemur -53.8711 27.4578 -26.029
ltibia 62.1041 0 0
lfoot -17.6658 35.805 0
ltoes 4.15744 0 0
rfemur -20.1506 -15.7593 17.1698
rtibia 74.7958 0 0
rfoot -8.64111 -27.2021 0
rtoes 16.3823 0 0
lowerback 15.11 1.4532 -4.64288
upperback -1.33603 1.36108 3.73746
thorax -10.135 1.01285 6.44574
lowerneck 5.54357 -15.7355 -16.6565
upperneck -4.07213 -22.542 23.9082
head 2.70877 -11.7766 8.90103
lclavicle 5.92244e-14 3.12446e-14 0
lhumerus -44.4864 -52.6347 122.226
lradius 94.5406 0 0
lwrist 41.4869 0 0
lhand -3.15603 42.9384 0
lfingers 7.12502 0 0
lthumb 22.5646 71.6522 0
rclavicle 5.92244e-14 3.12446e-14 0
rhumerus 61.7878 35.2669 -14.8527
rradius 122.543 0 0
rwrist -15.3141 0 0
rhand 9.64293 -24.6925 0
rfingers 7.12502 0 0
rthumb 34.7712 -54.2928 0
1734
root -4.98758 15.6581 27.2972 930.71 -11.9973 166.433
lfemur -54.0191 27.6727 -25.8168
ltibia 62.3558 0 0
lfoot -17.5046 35.6108 0
ltoes 4.23336 0 0
rfemur -20.0633 -16.2712 17.5288
rtibia 75.003 0 0
rfoot -8.80241 -27.3866 0
rtoes 16.4366 0 0
lowerback 15.0996 1.52623 -4.56477
upperback -1.36131 1.47046 3.70454
thorax -10.1605 1.06272 6.34013
lowerneck 5.42465 -15.6514 -16.6012
upperneck -3.98291 -22.4185 23.8575
head 2.72286 -11.7071 8.87894
lclavicle 5.83802e-14 3.09876e-14 0
lhumerus -45.0075 -52.4112 122.316
lradius 94.7385 0 0
lwrist 41.2691 0 0
lhand -3.18381 42.792 0
lfingers 7.12502 0 0
lthumb 22.5379 71.5101 0
rclavicle 5.83802e-14 3.09876e-14 0
rhumerus 61.5986 35.071 -15.0028
rradius 121.887 0 0
rwrist -14.5618 0 0
rhand 9.43899 -24.462 0
rfingers 7.12502 0 0
rthumb 34.5752 -54.6221 0
1735
root -4.90214 15.6673 27.3619 932.574 -10.199 164.85
lfemur -54.1314 27.8545 -25.5777
ltibia 62.6225 0 0
lfoot -17.337 35.3972 0
ltoes 4.26197 0 0
rfemur -19.997 -16.7987 17.8929
rtibia 75.1774 0 0
rfoot -8.9649 -27.5597 0
rtoes 16.4551 0 0
lowerback 15.0887 1.60384 -4.4846
upperback -1.38564 1.5861 3.66807
thorax -10.1846 1.11529 6.228
lowerneck 5.29775 -15.5593 -16.5392
upperneck -3.88603 -22.2828 23.7953
head 2.73656 -11.6307 8.85304
lclavicle 5.73758e-14 3.06876e-14 0
lhumerus -45.5613 -52.152 122.381
lradius 94.953 0 0
lwrist 41.0318 0 0
lhand -3.22328 42.6301 0
lfingers 7.12502 0 0
lthumb 22.4999 71.3537 0
rclavicle 5.73758e-14 3.06876e-14 0
rhumerus 61.3659 34.8349 -15.1877
rradius 121.129 0 0
rwrist -13.7836 0 0
rhand 9.21056 -24.236 0
rfingers 7.12502 0 0
rthumb 34.3557 -54.9754 0
1736
root -4.81681 15.676 27.4252 934.355 -8.33153 163.373
lfemur -54.2059 28.0009 -25.3103
ltibia 62.9041 0 0
lfoot -17.1628 35.1632 0
ltoes 4.24096 0 0
rfemur -19.9526 -17.3412 18.2617
rtibia 75.317 0 0
rfoot -9.1286 -27.7204 0
rtoes 16.4354 0 0
lowerback 15.0775 1.68609 -4.40231
upperback -1.40889 1.7081 3.62796
thorax -10.2071 1.17058 6.10918
lowerneck 5.1626 -15.4587 -16.47
upperneck -3.78115 -22.1342 23.7209
head 2.74987 -11.547 8.82308
lclavicle 5.62047e-14 3.03429e-14 0
lhumerus -46.147 -51.8549 122.42
lradius 95.1834 0 0
lwrist 40.7731 0 0
lhand -3.27539 42.4525 0
lfingers 7.12502 0 0
lthumb 22.4499 71.1827 0
rclavicle 5.62047e-14 3.03429e-14 0
rhumerus 61.0864 34.5567 -15.4095
rradius 120.264 0 0
rwrist -12.9822 0 0
rhand 8.95582 -24.0171 0
rfingers 7.12502 0 0
rthumb 34.111 -55.3494 0
1737
root -4.73166 15.6843 27.4868 936.045 -6.39434 162.012
lfemur -54.2406 28.1098 -25.0136
ltibia 63.2005 0 0
lfoot -16.9816 34.9079 0
ltoes 4.16804 0 0
rfemur -19.9308 -17.8985 18.6345
rtibia 75.4196 0 0
rfoot -9.29354 -27.8678 0
rtoes 16.3755 0 0
lowerback 15.0657 1.77305 -4.3178
upperback -1.43095 1.83654 3.58411
thorax -10.2279 1.22862 5.98348
lowerneck 5.01892 -15.3493 -16.3933
upperneck -3.66796 -21.9721 23.6336
head 2.76273 -11.4557 8.78883
lclavicle 5.48604e-14 2.99521e-14 0
lhumerus -46.7635 -51.518 122.433
lradius 95.4288 0 0
lwrist 40.491 0 0
lhand -3.34107 42.2587 0
lfingers 7.12502 0 0
lthumb 22.3867 70.9968 0
rclavicle 5.48604e-14 2.99521e-14 0
rhumerus 60.7567 34.2347 -15.6704
rradius 119.29 0 0
rwrist -12.16 0 0
rhand 8.67291 -23.808 0
rfingers 7.12502 0 0
rthumb 33.8394 -55.741 0
1738
root -4.64673 15.6921 27.5465 937.64 -4.38689 160.779
lfemur -54.2335 28.179 -24.6864
ltibia 63.5116 0 0
lfoot -16.7929 34.6303 0
ltoes 4.04089 0 0
rfemur -19.9327 -18.4701 19.011
rtibia 75.483 0 0
rfoot -9.45974 -28.0009 0
rtoes 16.2731 0 0
lowerback 15.0535 1.86478 -4.231
upperback -1.45172 1.97154 3.53642
thorax -10.2469 1.28945 5.85073
lowerneck 4.86645 -15.2305 -16.3087
upperneck -3.54612 -21.7958 23.5327
head 2.77512 -11.3563 8.75008
lclavicle 5.33365e-14 2.95134e-14 0
lhumerus -47.4099 -51.1394 122.417
lradius 95.6884 0 0
lwrist 40.1836 0 0
lhand -3.42128 42.0484 0
lfingers 7.12502 0 0
lthumb 22.3096 70.7956 0
rclavicle 5.33365e-14 2.95134e-14 0
rhumerus 60.3738 33.867 -15.9724
rradius 118.204 0 0
rwrist -11.3197 0 0
rhand 8.35999 -23.6116 0
rfingers 7.12502 0 0
rthumb 33.539 -56.1472 0
1739
root -4.56208 15.6993 27.6041 939.133 -2.30864 159.682
lfemur -54.1824 28.2063 -24.3276
ltibia 63.8372 0 0
lfoot -16.5964 34.3295 0
ltoes 3.8572 0 0
rfemur -19.959 -19.0555 19.3907
rtibia 75.5051 0 0
rfoot -9.62722 -28.1189 0
rtoes 16.1258 0 0
lowerback 15.0408 1.96135 -4.14182
upperback -1.47106 2.11316 3.4848
thorax -10.2638 1.35309 5.71075
lowerneck 4.7049 -15.1019 -16.2157
upperneck -3.4153 -21.6045 23.4176
head 2.787 -11.2486 8.7066
lclavicle 5.16265e-14 2.90252e-14 0
lhumerus -48.085 -50.7168 122.37
lradius 95.9614 0 0
lwrist 39.849 0 0
lhand -3.51697 41.8212 0
lfingers 7.12502 0 0
lthumb 22.2176 70.5789 0
rclavicle 5.16265e-14 2.90252e-14 0
rhumerus 59.9342 33.4518 -16.3177
rradius 117.001 0 0
rwrist -10.4639 0 0
rhand 8.01521 -23.4305 0
rfingers 7.12502 0 0
rthumb 33.2081 -56.5649 0
1740
root -4.47777 15.7058 27.6596 940.518 -0.159033 158.732
lfemur -54.0854 28.1895 -23.936
ltibia 64.1771 0 0
lfoot -16.3917 34.0044 0
ltoes 3.61467 0 0
rfemur -20.0107 -19.6543 19.7731
rtibia 75.4837 0 0
rfoot -9.796 -28.2208 0
rtoes 15.9316 0 0
lowerback 15.0276 2.0628 -4.05017
upperback -1.48887 2.26151 3.42914
thorax -10.2786 1.41957 5.56337
lowerneck 4.534 -14.9629 -16.1141
upperneck -3.27517 -21.3976 23.2874
head 2.79835 -11.132 8.65815
lclavicle 4.97239e-14 2.8486e-14 0
lhumerus -48.7881 -50.2485 122.292
lradius 96.2471 0 0
lwrist 39.4852 0 0
lhand -3.62907 41.5767 0
lfingers 7.12502 0 0
lthumb 22.1098 70.3463 0
rclavicle 4.97239e-14 2.8486e-14 0
rhumerus 59.4348 32.9875 -16.7084
rradius 115.679 0 0
rwrist -9.59515 0 0
rhand 7.63673 -23.2675 0
rfingers 7.12502 0 0
rthumb 32.845 -56.9909 0
1741
root -4.39384 15.7116 27.7126 941.79 2.06247 157.94
lfemur -53.9405 28.1266 -23.5105
ltibia 64.5314 0 0
lfoot -16.1785 33.654 0
ltoes 3.31099 0 0
rfemur -20.0886 -20.2662 20.1577
rtibia 75.4166 0 0
rfoot -9.96611 -28.3057 0
rtoes 15.688 0 0
lowerback 15.0139 2.16921 -3.95597
upperback -1.50503 2.41668 3.36936
thorax -10.2911 1.48893 5.40841
lowerneck 4.35349 -14.8132 -16.0033
upperneck -3.12541 -21.1743 23.1416
head 2.80913 -11.0064 8.6045
lclavicle 4.76222e-14 2.78941e-14 0
lhumerus -49.5179 -49.7323 122.181
lradius 96.5447 0 0
lwrist 39.0904 0 0
lhand -3.75854 41.3147 0
lfingers 7.12502 0 0
lthumb 21.9853 70.0975 0
rclavicle 4.76222e-14 2.78941e-14 0
rhumerus 58.8723 32.472 -17.1465
rradius 114.234 0 0
rwrist -8.71604 0 0
rhand 7.2227 -23.1254 0
rfingers 7.12502 0 0
rthumb 32.4477 -57.4222 0
